<svg width="1920" height="592" viewBox="0 0 1920 592" fill="none" xmlns="http://www.w3.org/2000/svg">
<path d="M1934.46 592C1884.95 583.546 2037.39 -16.8155 1934.46 29.57C1831.52 75.9555 1375.39 107.145 984.12 49.2847C562.29 4.48172 327.781 -27.3219 -50 49.2847V592H1934.46Z" fill="#5879BC"/>
<path d="M1739.57 21.6333C1754.77 6.43326 1773.57 15.2999 1781.07 21.6333C1784.77 11.2162 1798.43 -6.04829 1816.57 2.13314C1831.33 8.79308 1834.57 29.4665 1834.07 39.6331C1841.57 39.4665 1857.79 43.6622 1859.57 62.1331C1861.51 82.3563 1840.03 91.2794 1829.07 93.1331C1836.55 96.5561 1849.83 134.692 1823.57 148.133C1798.27 161.083 1781 136.015 1775.07 120.633C1763.23 125.466 1737.97 130.333 1731.57 111.133C1725.17 91.9331 1739.9 77.4665 1748.07 72.6331C1738.9 61.9665 1724.37 36.8333 1739.57 21.6333Z" fill="#F9F8F3"/>
<ellipse cx="1795.07" cy="72.6333" rx="20.5" ry="21.5" fill="#FAB156"/>
<path d="M243.568 394.635C258.768 379.435 277.568 388.302 285.068 394.635C288.767 384.218 302.428 366.954 320.568 375.135C335.334 381.795 338.568 402.468 338.068 412.635C345.568 412.468 361.795 416.664 363.568 435.135C365.509 455.358 344.03 464.281 333.068 466.135C340.552 469.558 353.829 507.694 327.568 521.135C302.267 534.085 285.004 509.017 279.068 493.635C267.235 498.468 241.968 503.335 235.568 484.135C229.168 464.935 243.901 450.468 252.068 445.635C242.901 434.968 228.368 409.835 243.568 394.635Z" fill="#F9F8F3"/>
<ellipse cx="299.068" cy="445.635" rx="20.5" ry="21.5" fill="#FAB156"/>
<path d="M1228.37 460.401C1238.49 450.282 1251 456.185 1255.99 460.401C1258.46 453.466 1267.55 441.974 1279.63 447.42C1289.46 451.853 1291.61 465.615 1291.28 472.383C1296.27 472.272 1307.07 475.065 1308.25 487.36C1309.54 500.822 1295.24 506.762 1287.95 507.996C1292.93 510.275 1301.77 535.661 1284.29 544.608C1267.44 553.229 1255.95 536.541 1252 526.302C1244.12 529.52 1227.3 532.759 1223.04 519.978C1218.78 507.198 1228.59 497.567 1234.03 494.35C1227.93 487.25 1218.25 470.519 1228.37 460.401Z" fill="#F9F8F3"/>
<ellipse cx="1265.31" cy="494.35" rx="13.6463" ry="14.312" fill="#FAB156"/>
<path d="M1391.17 301.692C1399.39 293.477 1409.55 298.269 1413.6 301.692C1415.6 296.062 1422.98 286.731 1432.79 291.153C1440.77 294.752 1442.51 305.925 1442.24 311.42C1446.3 311.33 1455.07 313.597 1456.02 323.58C1457.07 334.509 1445.47 339.332 1439.54 340.334C1443.59 342.184 1450.76 362.794 1436.57 370.058C1422.89 377.057 1413.57 363.509 1410.36 355.196C1403.96 357.808 1390.31 360.438 1386.85 350.062C1383.39 339.685 1391.35 331.867 1395.76 329.254C1390.81 323.49 1382.96 309.906 1391.17 301.692Z" fill="#F9F8F3"/>
<ellipse cx="1421.17" cy="329.254" rx="11.0792" ry="11.6196" fill="#FAB156"/>
<path d="M883.171 23.6917C891.386 15.4768 901.546 20.2688 905.6 23.6917C907.599 18.0618 914.982 8.73121 924.785 13.1528C932.766 16.7522 934.514 27.9251 934.243 33.4197C938.297 33.3296 947.066 35.5972 948.025 45.5798C949.074 56.5093 937.466 61.3318 931.541 62.3337C935.586 64.1836 942.761 84.7939 928.569 92.0583C914.895 99.0573 905.565 85.5089 902.357 77.196C895.962 79.8082 882.306 82.4383 878.847 72.0617C875.388 61.6851 883.351 53.8666 887.765 51.2545C882.811 45.4897 874.956 31.9065 883.171 23.6917Z" fill="#F9F8F3"/>
<ellipse cx="913.166" cy="51.2544" rx="11.0792" ry="11.6196" fill="#FAB156"/>
<path d="M95.1709 61.6917C103.386 53.4768 113.546 58.2688 117.6 61.6917C119.599 56.0618 126.982 46.7312 136.785 51.1528C144.766 54.7522 146.514 65.9251 146.243 71.4197C150.297 71.3296 159.066 73.5972 160.025 83.5798C161.074 94.5093 149.466 99.3318 143.541 100.334C147.586 102.184 154.761 122.794 140.569 130.058C126.895 137.057 117.565 123.509 114.357 115.196C107.962 117.808 94.3062 120.438 90.8473 110.062C87.3885 99.6851 95.3511 91.8666 99.7647 89.2545C94.8106 83.4897 86.9561 69.9065 95.1709 61.6917Z" fill="#F9F8F3"/>
<ellipse cx="125.166" cy="89.2544" rx="11.0792" ry="11.6196" fill="#FAB156"/>
<path d="M480.468 117.842C485.978 112.332 492.793 115.546 495.512 117.842C496.853 114.066 501.805 107.808 508.38 110.773C513.733 113.187 514.905 120.681 514.724 124.367C517.443 124.306 523.325 125.827 523.968 132.523C524.672 139.854 516.885 143.088 512.912 143.76C515.625 145.001 520.437 158.825 510.918 163.698C501.746 168.392 495.489 159.305 493.337 153.729C489.047 155.481 479.888 157.245 477.568 150.285C475.248 143.325 480.589 138.081 483.55 136.329C480.227 132.463 474.958 123.352 480.468 117.842Z" fill="#F9F8F3"/>
<ellipse cx="500.587" cy="136.329" rx="7.43117" ry="7.79366" fill="#FAB156"/>
<path d="M9.46829 337.842C14.9782 332.332 21.7931 335.546 24.5119 337.842C25.8529 334.066 30.8049 327.808 37.3805 330.773C42.7332 333.187 43.9054 340.681 43.7242 344.367C46.4429 344.306 52.3251 345.827 52.9678 352.523C53.6716 359.854 45.8854 363.088 41.9117 363.76C44.6248 365.001 49.4375 378.825 39.918 383.698C30.7463 388.392 24.4889 379.305 22.3369 373.729C18.0474 375.481 8.88831 377.245 6.56834 370.285C4.24836 363.325 9.58913 358.081 12.5495 356.329C9.22662 352.463 3.95835 343.352 9.46829 337.842Z" fill="#F9F8F3"/>
<ellipse cx="29.5867" cy="356.329" rx="7.43117" ry="7.79366" fill="#FAB156"/>
<path d="M634.468 450.842C639.978 445.332 646.793 448.546 649.512 450.842C650.853 447.066 655.805 440.808 662.38 443.773C667.733 446.187 668.905 453.681 668.724 457.367C671.443 457.306 677.325 458.827 677.968 465.523C678.672 472.854 670.885 476.088 666.912 476.76C669.625 478.001 674.437 491.825 664.918 496.698C655.746 501.392 649.489 492.305 647.337 486.729C643.047 488.481 633.888 490.245 631.568 483.285C629.248 476.325 634.589 471.081 637.55 469.329C634.227 465.463 628.958 456.352 634.468 450.842Z" fill="#F9F8F3"/>
<ellipse cx="654.587" cy="469.329" rx="7.43117" ry="7.79366" fill="#FAB156"/>
<path d="M1789.47 364.842C1794.98 359.332 1801.79 362.546 1804.51 364.842C1805.85 361.066 1810.8 354.808 1817.38 357.773C1822.73 360.187 1823.91 367.681 1823.72 371.367C1826.44 371.306 1832.33 372.827 1832.97 379.523C1833.67 386.854 1825.89 390.088 1821.91 390.76C1824.62 392.001 1829.44 405.825 1819.92 410.698C1810.75 415.392 1804.49 406.305 1802.34 400.729C1798.05 402.481 1788.89 404.245 1786.57 397.285C1784.25 390.325 1789.59 385.081 1792.55 383.329C1789.23 379.463 1783.96 370.352 1789.47 364.842Z" fill="#F9F8F3"/>
<ellipse cx="1809.59" cy="383.329" rx="7.43117" ry="7.79366" fill="#FAB156"/>
</svg>
