<svg width="110" height="150" viewBox="0 0 208 285" fill="none" xmlns="http://www.w3.org/2000/svg">
<circle cx="175.167" cy="201.168" r="12.8788" transform="rotate(-25.4858 175.167 201.168)" fill="#FAB156"/>
<circle cx="137.87" cy="69.8706" r="61.5363" transform="rotate(-8.40525 137.87 69.8706)" fill="#FF7C5F"/>
<path d="M106.711 56.6888C115.775 42.0175 129.379 47.7844 135.048 52.5017C145.002 39.1022 157.303 42.7812 162.273 46.7249C173.207 55.4008 169.376 69.0649 166.459 75.0511C162.773 82.6126 149.17 96.6097 142.405 102.287C128.236 96.6623 115.242 86.712 110.516 82.4401C101.018 73.0532 104.399 60.8314 106.711 56.6888Z" fill="white"/>
<circle cx="58.8524" cy="225.853" r="50.9917" transform="rotate(-9.69756 58.8524 225.853)" fill="#5879BC"/>
<path d="M49.5693 254.089L40.7196 202.303L83.674 224.331L49.5693 254.089Z" fill="white" stroke="white" stroke-width="2" stroke-linecap="round" stroke-linejoin="round"/>
</svg>
